{
    "asset" : {
        "generator" : "Khronos glTF Blender I/O v1.8.19",
        "version" : "2.0"
    },
    "scene" : 0,
    "scenes" : [
        {
            "name" : "Scene",
            "nodes" : [
                0
            ]
        }
    ],
    "nodes" : [
        {
            "mesh" : 0,
            "name" : "31.001"
        }
    ],
    "materials" : [
        {
            "doubleSided" : true,
            "name" : "Material.001",
            "pbrMetallicRoughness" : {
                "baseColorFactor" : [
                    0.8958553671836853,
                    0.7148022055625916,
                    0,
                    1
                ],
                "metallicFactor" : 0,
                "roughnessFactor" : 0.23333331942558289
            }
        }
    ],
    "meshes" : [
        {
            "name" : "Text.001",
            "primitives" : [
                {
                    "attributes" : {
                        "POSITION" : 0,
                        "NORMAL" : 1,
                        "TEXCOORD_0" : 2
                    },
                    "indices" : 3,
                    "material" : 0
                }
            ]
        }
    ],
    "accessors" : [
        {
            "bufferView" : 0,
            "componentType" : 5126,
            "count" : 2266,
            "max" : [
                0.9520000219345093,
                0.25,
                0.9776297807693481
            ],
            "min" : [
                -1.3382399082183838,
                -0.25,
                -1.2104767560958862
            ],
            "type" : "VEC3"
        },
        {
            "bufferView" : 1,
            "componentType" : 5126,
            "count" : 2266,
            "type" : "VEC3"
        },
        {
            "bufferView" : 2,
            "componentType" : 5126,
            "count" : 2266,
            "type" : "VEC2"
        },
        {
            "bufferView" : 3,
            "componentType" : 5123,
            "count" : 10848,
            "type" : "SCALAR"
        }
    ],
    "bufferViews" : [
        {
            "buffer" : 0,
            "byteLength" : 27192,
            "byteOffset" : 0
        },
        {
            "buffer" : 0,
            "byteLength" : 27192,
            "byteOffset" : 27192
        },
        {
            "buffer" : 0,
            "byteLength" : 18128,
            "byteOffset" : 54384
        },
        {
            "buffer" : 0,
            "byteLength" : 21696,
            "byteOffset" : 72512
        }
    ],
    "buffers" : [
        {
            "byteLength" : 94208,
            "uri" : "data:application/octet-stream;base64,"
        }
    ]
}
